<?xml version="1.0" encoding="utf-8"?>
<!-- Generator: Adobe Illustrator 18.1.0, SVG Export Plug-In . SVG Version: 6.00 Build 0)  -->
<svg version="1.1" id="Layer_1" xmlns="http://www.w3.org/2000/svg" xmlns:xlink="http://www.w3.org/1999/xlink" x="0px" y="0px"
	 viewBox="0 0 32 32" enable-background="new 0 0 32 32" xml:space="preserve">
<path fill-rule="evenodd" clip-rule="evenodd" fill="#00A651" d="M31,4.6C30.3,3.5,27.1,0,25.5,0l-0.1,0l-0.4,0
	c-1.1,0-2.8,0.4-9,4.9c-7,5.1-11.4,12.2-13.6,15.6l-0.4,0.7c-2.2,3.5-1.2,5.8,0,7.6c1.5,2.2,3,3.2,4.4,3.2c2,0,3.2-2.1,4.2-3.7
	c0.3-0.5,0.5-0.9,0.8-1.3c2-2.7,1.3-4.6-0.6-7c0-0.1-1-1.5,6.7-7.9l0.3-0.3l0.3-0.3c0.7-0.6,1.2-1.1,1.8-1.1c0.4,0,0.9,0.3,1.4,0.7
	c0.7,0.6,1.4,0.9,2.3,0.9c1.7,0,3.3-1.3,4.3-2.1c0.2-0.2,0.4-0.4,0.6-0.5l0.2-0.2C29.8,8.4,32.3,6.7,31,4.6z M27.7,8l-0.2,0.2
	c-0.2,0.1-0.4,0.3-0.7,0.5c-0.9,0.7-2.1,1.8-3.3,1.8c-0.4,0-0.8-0.2-1.2-0.5c-0.9-0.8-1.7-1.2-2.5-1.2c-1.1,0-2,0.7-2.8,1.4
	l-0.3,0.3l-0.3,0.3C10.1,16,8,19.1,9.4,20.9c1.8,2.3,1.9,3.3,0.6,5.1c-0.3,0.4-0.6,0.9-0.8,1.4c-0.8,1.3-1.7,2.9-2.8,2.9
	c-0.8,0-1.9-0.9-3.1-2.5c-1-1.4-1.8-2.9,0-5.8l0.4-0.7c2.1-3.3,6.4-10.2,13.1-15.1c5.6-4.1,7.3-4.6,8.1-4.6l0.4,0l0.2,0
	c0.8,0.1,3.4,2.7,4.2,3.8C29.9,5.9,29.9,6.5,27.7,8z"/>
</svg>
