<?xml version="1.0" encoding="UTF-8" standalone="no"?>
<svg width="814px" height="812px" viewBox="0 0 814 812" version="1.1" xmlns="http://www.w3.org/2000/svg" xmlns:xlink="http://www.w3.org/1999/xlink" xmlns:sketch="http://www.bohemiancoding.com/sketch/ns">
    <!-- Generator: Sketch 3.2.2 (9983) - http://www.bohemiancoding.com/sketch -->
    <title>Oval 3</title>
    <desc>Created with Sketch.</desc>
    <defs></defs>
    <g id="Page-1" stroke="none" stroke-width="1" fill="none" fill-rule="evenodd" sketch:type="MSPage">
        <g id="icon_512x512@2x" sketch:type="MSArtboardGroup" transform="translate(-105.000000, -104.000000)" stroke="#979797" fill="#FFFFFF">
            <path d="M744.339333,482.012055 C730.525314,366.521295 632.219121,276.98843 513,276.98843 C395.51121,276.98843 298.332698,363.941219 282.315352,477 L191.8775,477 C198.575295,414.995204 222.877101,358.26708 259.683512,311.914692 L199.523474,251.754654 C141.118037,322.0724 106,412.421693 106,510.97269 C106,721.68975 266.548989,894.911106 472.002691,915.000263 L472.002691,831.491314 L472.002691,831.491314 C324.493911,813.216794 207.915794,695.18289 191.88342,547 L191.88342,547 L282.926255,547 C300.665453,658.076478 396.919596,742.957085 513,742.957085 C630.901061,742.957085 728.349056,655.392986 743.850263,541.754374 L659.457703,540.920304 L659.457703,537.709694 C646.433418,607.85114 584.919549,660.9626 511,660.9626 C427.605003,660.9626 360,593.362145 360,509.972757 C360,426.58337 427.605003,358.982915 511,358.982915 C584.919549,358.982915 646.433418,412.094375 659.457703,482.23582 L659.457703,482.175903 L744.339333,482.012055 Z M551.997309,831.491314 C710.958666,811.797961 834,676.253247 834,511.972623 C834,334.148896 689.835689,189.994282 512,189.994282 C438.604895,189.994282 370.945104,214.548432 316.788088,255.889793 L256.417401,195.519107 L256.417401,195.519107 C326.20319,138.915973 415.140579,105 512,105 C736.227608,105 918,286.760165 918,510.97269 C918,607.542558 884.279698,696.237157 827.970499,765.925832 L827.970499,765.925832 L910.498083,848.453416 L853.933346,905.018154 L771.840195,822.925003 C711.045477,873.612219 635.203955,906.86436 551.997309,915.000263 L551.997309,831.491314 L551.997309,831.491314 Z" id="Oval-3" sketch:type="MSShapeGroup"></path>
        </g>
    </g>
</svg>