<?xml version="1.0" encoding="UTF-8" standalone="no"?>
<svg width="50px" height="51px" viewBox="0 0 50 51" version="1.1" xmlns="http://www.w3.org/2000/svg" xmlns:xlink="http://www.w3.org/1999/xlink" xmlns:sketch="http://www.bohemiancoding.com/sketch/ns">
    <!-- Generator: Sketch 3.2.2 (9983) - http://www.bohemiancoding.com/sketch -->
    <title>Shape</title>
    <desc>Created with Sketch.</desc>
    <defs></defs>
    <g id="Page-1" stroke="none" stroke-width="1" fill="none" fill-rule="evenodd" sketch:type="MSPage">
        <g id="1429310527_38-instagram" sketch:type="MSLayerGroup" fill="#1A2734">
            <path d="M40.414,0.831 L10,0.831 C4.717,0.831 0.419,5.128 0.419,10.411 L0.419,20.531 L0.419,40.826 C0.419,46.109 4.717,50.406 10,50.406 L40.415,50.406 C45.698,50.406 49.995,46.109 49.995,40.826 L49.995,20.53 L49.995,10.41 C49.994,5.127 45.697,0.831 40.414,0.831 L40.414,0.831 Z M43.162,6.544 L44.258,6.54 L44.258,7.631 L44.258,14.943 L35.883,14.97 L35.854,6.568 L43.162,6.544 L43.162,6.544 Z M18.131,20.53 C19.719,18.333 22.295,16.892 25.207,16.892 C28.119,16.892 30.695,18.333 32.281,20.53 C33.314,21.964 33.933,23.718 33.933,25.618 C33.933,30.429 30.015,34.343 25.206,34.343 C20.394,34.343 16.48,30.429 16.48,25.618 C16.481,23.718 17.098,21.964 18.131,20.53 L18.131,20.53 Z M45.164,40.825 C45.164,43.446 43.033,45.575 40.414,45.575 L10,45.575 C7.38,45.575 5.249,43.446 5.249,40.825 L5.249,20.53 L12.649,20.53 C12.01,22.102 11.651,23.819 11.651,25.618 C11.651,33.091 17.731,39.175 25.207,39.175 C32.682,39.175 38.762,33.091 38.762,25.618 C38.762,23.819 38.401,22.102 37.762,20.53 L45.164,20.53 L45.164,40.825 L45.164,40.825 Z" id="Shape" sketch:type="MSShapeGroup"></path>
        </g>
    </g>
</svg>