<?xml version="1.0" encoding="UTF-8" standalone="no"?>
<svg width="334px" height="80px" viewBox="0 0 334 80" version="1.1" xmlns="http://www.w3.org/2000/svg" xmlns:xlink="http://www.w3.org/1999/xlink" xmlns:sketch="http://www.bohemiancoding.com/sketch/ns">
    <!-- Generator: Sketch 3.2.2 (9983) - http://www.bohemiancoding.com/sketch -->
    <title>CITYQUEST + Logo</title>
    <desc>Created with Sketch.</desc>
    <defs></defs>
    <g id="Page-1" stroke="none" stroke-width="1" fill="none" fill-rule="evenodd" sketch:type="MSPage">
        <g id="Desktop" sketch:type="MSArtboardGroup" transform="translate(-284.000000, -149.000000)" fill="#FFFFFF">
            <g id="CITYQUEST-+-Logo" sketch:type="MSLayerGroup" transform="translate(284.000000, 149.000000)">
                <text id="CITYQUEST" sketch:type="MSTextLayer" font-family="Affect" font-size="47" font-weight="bold">
                    <tspan x="106" y="52">CITYQUEST</tspan>
                </text>
                <path d="M63.0458396,37.2357464 C61.6814925,25.8292553 51.972242,16.9865061 40.1975178,16.9865061 C28.5936905,16.9865061 18.9958158,25.574433 17.4138563,36.7407288 L8.48172569,36.7407288 C9.14323606,30.6168003 11.5434137,25.0140244 15.1786135,20.4360123 L9.23688329,14.4942821 C3.46844696,21.4392424 0,30.3626264 0,40.0960551 C0,60.9076098 15.8566851,78.0158864 36.1484021,80 L36.1484021,71.7522052 L36.1484021,71.7522052 C21.5796385,69.947315 10.0657541,58.2896492 8.48231031,43.6543068 L8.48231031,43.6543068 L17.4741923,43.6543068 C19.2262113,54.6248196 28.7327902,63.0080867 40.1975178,63.0080867 C51.8420633,63.0080867 61.4665535,54.3597835 62.9975364,43.1362205 L54.6624714,43.0538432 L54.6624714,42.7367461 C53.3761227,49.664294 47.3006809,54.9098686 39.999987,54.9098686 C31.7634467,54.9098686 25.0864116,48.2332826 25.0864116,39.9972964 C25.0864116,31.7613102 31.7634467,25.0847242 39.999987,25.0847242 C47.3006809,25.0847242 53.3761227,30.3302988 54.6624714,37.2578467 L54.6624714,37.251929 L63.0458396,37.2357464 Z M44.0491027,71.7522052 C59.7489846,69.8071834 71.9012112,56.4200555 71.9012112,40.1948139 C71.9012112,22.6319823 57.6627654,8.3944943 40.0987524,8.3944943 C32.8498555,8.3944943 26.1674092,10.8195947 20.8185698,14.9026908 L14.8560348,8.94015578 L14.8560348,8.94015578 C21.7484561,3.34972462 30.5323929,0 40.0987524,0 C62.2446818,0 80.1975048,17.9516154 80.1975048,40.0960551 C80.1975048,49.6338168 76.8671057,58.3937743 71.3057051,65.2766042 L71.3057051,65.2766042 L79.456575,73.4274741 L73.8699361,79.014113 L65.7619732,70.9061501 C59.7575585,75.9122932 52.2670403,79.1964543 44.0491027,80 L44.0491027,71.7522052 L44.0491027,71.7522052 Z" id="Oval-3" sketch:type="MSShapeGroup"></path>
            </g>
        </g>
    </g>
</svg>