<?xml version="1.0" encoding="UTF-8" standalone="no"?>
<svg width="334px" height="80px" viewBox="0 0 334 80" version="1.1" xmlns="http://www.w3.org/2000/svg" xmlns:xlink="http://www.w3.org/1999/xlink" xmlns:sketch="http://www.bohemiancoding.com/sketch/ns">
    <!-- Generator: Sketch 3.2.2 (9983) - http://www.bohemiancoding.com/sketch -->
    <title>CITYQUEST + Logo</title>
    <desc>Created with Sketch.</desc>
    <defs></defs>
    <g id="Page-1" stroke="none" stroke-width="1" fill="none" fill-rule="evenodd" sketch:type="MSPage">
        <g id="Desktop" sketch:type="MSArtboardGroup" transform="translate(-284.000000, -149.000000)" fill="#FFFFFF">
            <g id="CITYQUEST-+-Logo" sketch:type="MSLayerGroup" transform="translate(284.000000, 149.000000)">
                <path d="M63.0458396,37.2357464 C61.6814925,25.8292553 51.972242,16.9865061 40.1975178,16.9865061 C28.5936905,16.9865061 18.9958158,25.574433 17.4138563,36.7407288 L8.48172569,36.7407288 C9.14323606,30.6168003 11.5434137,25.0140244 15.1786135,20.4360123 L9.23688329,14.4942821 C3.46844696,21.4392424 0,30.3626264 0,40.0960551 C0,60.9076098 15.8566851,78.0158864 36.1484021,80 L36.1484021,71.7522052 L36.1484021,71.7522052 C21.5796385,69.947315 10.0657541,58.2896492 8.48231031,43.6543068 L8.48231031,43.6543068 L17.4741923,43.6543068 C19.2262113,54.6248196 28.7327902,63.0080867 40.1975178,63.0080867 C51.8420633,63.0080867 61.4665535,54.3597835 62.9975364,43.1362205 L54.6624714,43.0538432 L54.6624714,42.7367461 C53.3761227,49.664294 47.3006809,54.9098686 39.999987,54.9098686 C31.7634467,54.9098686 25.0864116,48.2332826 25.0864116,39.9972964 C25.0864116,31.7613102 31.7634467,25.0847242 39.999987,25.0847242 C47.3006809,25.0847242 53.3761227,30.3302988 54.6624714,37.2578467 L54.6624714,37.251929 L63.0458396,37.2357464 Z M44.0491027,71.7522052 C59.7489846,69.8071834 71.9012112,56.4200555 71.9012112,40.1948139 C71.9012112,22.6319823 57.6627654,8.3944943 40.0987524,8.3944943 C32.8498555,8.3944943 26.1674092,10.8195947 20.8185698,14.9026908 L14.8560348,8.94015578 L14.8560348,8.94015578 C21.7484561,3.34972462 30.5323929,0 40.0987524,0 C62.2446818,0 80.1975048,17.9516154 80.1975048,40.0960551 C80.1975048,49.6338168 76.8671057,58.3937743 71.3057051,65.2766042 L71.3057051,65.2766042 L79.456575,73.4274741 L73.8699361,79.014113 L65.7619732,70.9061501 C59.7575585,75.9122932 52.2670403,79.1964543 44.0491027,80 L44.0491027,71.7522052 L44.0491027,71.7522052 Z" id="Oval-3" sketch:type="MSShapeGroup"></path>
                <path d="M121.134,26.009 C113.614,26.009 107.88,31.555 107.88,39.122 C107.88,46.689 113.614,52.376 121.134,52.376 C125.834,52.376 129.923,50.308 132.32,46.36 C132.508,46.125 132.461,45.843 132.226,45.608 L129.265,43.258 C128.983,43.023 128.748,43.023 128.513,43.258 C126.586,46.078 124.33,47.206 121.134,47.206 C116.481,47.206 113.332,43.775 113.332,39.122 C113.332,34.469 116.434,31.179 121.134,31.179 C124.33,31.179 126.445,32.354 128.372,34.986 C128.56,35.221 128.936,35.409 129.265,35.08 L132.226,32.824 C132.461,32.636 132.508,32.401 132.32,32.072 C130.064,28.218 125.552,26.009 121.134,26.009 L121.134,26.009 Z M137.584,26.385 C137.161,26.385 136.926,26.62 136.926,27.043 L136.926,51.342 C136.926,51.765 137.161,52 137.584,52 L141.72,52 C142.143,52 142.378,51.765 142.378,51.342 L142.378,27.043 C142.378,26.62 142.143,26.385 141.72,26.385 L137.584,26.385 Z M146.796,26.385 C146.373,26.385 146.138,26.62 146.138,27.043 L146.138,30.897 C146.138,31.32 146.373,31.555 146.796,31.555 L154.974,31.555 L154.974,51.342 C154.974,51.765 155.209,52 155.632,52 L159.768,52 C160.191,52 160.426,51.765 160.426,51.342 L160.426,31.555 L168.604,31.555 C169.027,31.555 169.262,31.32 169.262,30.897 L169.262,27.043 C169.262,26.62 169.027,26.385 168.604,26.385 L146.796,26.385 Z M187.545,45.467 L198.073,26.949 C198.214,26.62 198.073,26.385 197.744,26.385 L192.621,26.385 C192.292,26.385 192.104,26.526 191.963,26.808 L185.101,40.062 L184.772,40.062 L177.581,26.761 C177.44,26.526 177.205,26.385 176.97,26.385 L171.8,26.385 C171.471,26.385 171.33,26.667 171.471,26.902 L182.093,45.467 L182.093,51.342 C182.093,51.765 182.328,52 182.751,52 L186.887,52 C187.31,52 187.545,51.765 187.545,51.342 L187.545,45.467 Z M225.709,50.449 C225.991,50.167 225.991,49.885 225.662,49.556 L224.017,47.817 C226.038,45.561 227.213,42.6 227.213,39.216 C227.213,31.696 221.15,26.009 213.771,26.009 C206.345,26.009 200.282,31.696 200.282,39.216 C200.282,46.783 206.345,52.376 213.771,52.376 C215.98,52.376 218.095,51.906 220.022,50.919 L221.996,52.987 C222.325,53.316 222.654,53.316 222.983,52.987 L225.709,50.449 Z M214.429,44.01 C214.1,44.339 214.1,44.621 214.429,44.95 L216.262,46.924 C215.51,47.159 214.664,47.253 213.771,47.253 C209.071,47.253 205.781,43.869 205.781,39.216 C205.781,34.469 209.071,31.132 213.771,31.132 C218.424,31.132 221.714,34.469 221.714,39.216 C221.714,41.049 221.244,42.647 220.351,43.916 L218.048,41.472 C217.719,41.19 217.437,41.19 217.108,41.519 L214.429,44.01 Z M231.443,40.72 C231.443,47.347 235.861,52.376 242.911,52.376 C250.008,52.376 254.426,47.347 254.426,40.72 L254.426,27.043 C254.426,26.62 254.191,26.385 253.768,26.385 L249.632,26.385 C249.209,26.385 248.974,26.62 248.974,27.043 L248.974,40.673 C248.974,44.621 246.718,47.206 242.911,47.206 C239.01,47.206 236.895,44.48 236.895,40.673 L236.895,27.043 C236.895,26.62 236.66,26.385 236.237,26.385 L232.101,26.385 C231.678,26.385 231.443,26.62 231.443,27.043 L231.443,40.72 Z M260.724,26.385 C260.395,26.385 260.066,26.667 260.066,27.043 L260.066,51.342 C260.066,51.765 260.301,52 260.724,52 L280.135,52 C280.558,52 280.793,51.765 280.793,51.342 L280.793,47.535 C280.793,47.112 280.558,46.877 280.135,46.877 L265.518,46.877 L265.518,41.331 L278.02,41.331 C278.443,41.331 278.678,41.096 278.678,40.673 L278.678,36.913 C278.678,36.49 278.443,36.255 278.02,36.255 L265.518,36.255 L265.518,31.461 L279.759,31.461 C280.182,31.461 280.417,31.226 280.417,30.803 L280.417,27.043 C280.417,26.62 280.182,26.385 279.759,26.385 L260.724,26.385 Z M295.974,26.009 C289.817,26.009 285.352,28.97 285.352,33.623 C285.352,38.934 289.535,40.814 295.833,41.331 C300.58,41.754 302.366,42.553 302.366,44.386 C302.366,46.125 300.58,47.3 296.632,47.3 C292.919,47.3 290.475,46.407 287.89,44.386 C287.561,44.104 287.232,44.151 286.95,44.527 L284.741,47.488 C284.459,47.864 284.459,48.193 284.788,48.428 C288.172,51.248 291.838,52.376 296.538,52.376 C302.977,52.376 307.771,49.415 307.771,44.292 C307.771,38.934 303.024,36.725 296.444,36.114 C292.167,35.691 290.757,34.939 290.757,33.435 C290.757,31.978 292.496,31.085 295.692,31.085 C298.935,31.085 301.661,32.025 303.776,33.717 C304.152,34.046 304.481,33.999 304.763,33.67 L307.113,30.756 C307.348,30.427 307.301,30.145 306.972,29.91 C303.964,27.419 300.11,26.009 295.974,26.009 L295.974,26.009 Z M311.249,26.385 C310.826,26.385 310.591,26.62 310.591,27.043 L310.591,30.897 C310.591,31.32 310.826,31.555 311.249,31.555 L319.427,31.555 L319.427,51.342 C319.427,51.765 319.662,52 320.085,52 L324.221,52 C324.644,52 324.879,51.765 324.879,51.342 L324.879,31.555 L333.057,31.555 C333.48,31.555 333.715,31.32 333.715,30.897 L333.715,27.043 C333.715,26.62 333.48,26.385 333.057,26.385 L311.249,26.385 Z" id="CITYQUEST" sketch:type="MSShapeGroup"></path>
            </g>
        </g>
    </g>
</svg>