<?xml version="1.0" encoding="utf-8"?>
<!-- Generator: Adobe Illustrator 18.1.0, SVG Export Plug-In . SVG Version: 6.00 Build 0)  -->
<svg version="1.1" id="Layer_1" xmlns="http://www.w3.org/2000/svg" xmlns:xlink="http://www.w3.org/1999/xlink" x="0px" y="0px" viewBox="0 0 32 32" enable-background="new 0 0 32 32" xml:space="preserve">
<path fill-rule="evenodd" clip-rule="evenodd" fill="#ffffff" d="M29.4,26c-0.8-0.8-1.8-2.3-6.3-2.9c-4.5-0.7-3.7-3-3.7-3.1
	c0-0.4,0.2-1.8,0.2-1.8s1.4-1.2,2.1-3.2c1.1-0.7,1.5-0.8,1.7-1.6c0,0,0.4-3-0.8-3c0,0-0.5,0.1-0.3-0.6c0.2-0.7,0.1-2.9,0-3.7
	c-0.1-0.8,0.1-3-1.5-3.3c-1.1-0.2-1.2,0.1-1.8,0c-0.5-0.1-1.2-1.5-2.2-1.5l-2.1,0.3c-1,0-0.9,0.3-1.4,0.4s0.1-0.1-1.5,0.2
	c-1.6,0.3-2.2,2.4-2.3,3.2c-0.1,0.8-0.1,3,0,4.1c0.2,0.7-0.4,0.7-0.4,0.7c-1-0.1-0.5,3-0.5,3c0.1,0.7-0.1,1.1,1.4,1.7
	c0.7,2,2.4,3,2.4,3s0.1,1.3,0.1,2.2c-0.1-0.1,0.5,2.3-4,3C4,23.8,3.2,25.2,2.3,26c-0.8,0.8-0.8,4.5-0.8,4.5h28.9
	C30.5,30.6,30.3,26.8,29.4,26z M3.3,28.9c0.1-0.8,0.2-1.4,0.3-1.7c0.1-0.1,0.2-0.2,0.3-0.3c0.7-0.7,1.5-1.6,4.9-2.1
	c2.5-0.4,3.9-1.3,4.7-2.3l0.8-2.4c0-0.9-0.1-2.2-0.1-2.2L14.1,17l-0.8-0.5c0,0-1.2-0.7-1.7-2l-0.3-0.7l-0.7-0.3
	c-0.1-0.1-0.2-0.1-0.3-0.1c0-0.1,0-0.2,0-0.3c-0.1-0.4-0.1-0.9-0.1-1.3c0.2-0.1,0.4-0.3,0.6-0.5c0.2-0.3,0.6-0.9,0.4-1.8
	c0-1.1,0-3.1,0-3.8c0.1-0.5,0.4-1.6,0.9-1.7c0.7-0.1,0.9-0.2,1-0.2c0,0,0,0,0,0c0,0,0.2,0,0.4,0c0.5-0.1,0.8-0.3,1-0.4
	c0,0,0.3,0,0.3,0l1.8-0.3c0.1,0.1,0.2,0.2,0.3,0.3c0.4,0.4,0.9,1,1.7,1.1c0.1,0,0.3,0,0.4,0c0.3,0,0.5,0,0.7-0.1c0.1,0,0.2,0,0.2,0
	c0.1,0,0.2,0,0.3,0c0.1,0.3,0.1,1,0.2,1.2c0,0.2,0,0.4,0,0.6c0.1,0.8,0.1,2.7,0,3.1c-0.2,1,0.1,1.6,0.4,1.9c0.2,0.2,0.5,0.4,0.7,0.6
	c0,0.3,0,0.7,0,1c-0.1,0.1-0.2,0.1-0.4,0.2c-0.2,0.1-0.4,0.2-0.6,0.3l-0.5,0.3l-0.2,0.6c-0.5,1.5-1.6,2.4-1.6,2.4L18,17.3L17.9,18
	c0,0.4-0.2,1.5-0.2,1.9c-0.2,1.3,0.1,4.1,5.2,4.9c3.4,0.5,4.3,1.4,5,2.1c0.1,0.1,0.2,0.2,0.3,0.3c0.1,0.3,0.3,0.9,0.4,1.7H3.3z"/>
</svg>
