<?xml version="1.0" encoding="utf-8"?>
<!-- Generator: Adobe Illustrator 18.1.0, SVG Export Plug-In . SVG Version: 6.00 Build 0)  -->
<svg version="1.1" id="Layer_1" xmlns="http://www.w3.org/2000/svg" xmlns:xlink="http://www.w3.org/1999/xlink" x="0px" y="0px" viewBox="0 0 32 32" enable-background="new 0 0 32 32" xml:space="preserve">
<g>
	<g>
		<path fill="#ffffff" d="M16.1,0C9.8,0,4.5,5.6,4.5,12.2c0,6.9,6.2,14,10.3,19c0,0,0.7,0.8,1.5,0.8h0.1c0.8,0,1.5-0.8,1.5-0.8
			c3.9-4.7,9.6-12.4,9.6-19C27.5,5.6,23.3,0,16.1,0z M16.5,29.9c0,0-0.1,0.1-0.1,0.1c0,0-0.1-0.1-0.1-0.1l-0.5-0.6
			c-3.9-4.7-9.3-11.2-9.3-17.1C6.4,6.7,10.9,2,16.1,2c6.5,0,9.5,5.1,9.5,10.2C25.6,16.7,22.5,22.6,16.5,29.9z M16,6.1
			c-3.2,0-5.8,2.7-5.8,6s2.6,6,5.8,6c3.2,0,5.8-2.7,5.8-6S19.2,6.1,16,6.1z M16,16.1c-2.1,0-3.9-1.8-3.9-4c0-2.2,1.7-4,3.8-4
			c2.1,0,3.8,1.8,3.8,4C19.8,14.2,18.1,16.1,16,16.1z"/>
	</g>
</g>
</svg>
