<?xml version="1.0" encoding="utf-8"?>
<!-- Generator: Adobe Illustrator 18.1.0, SVG Export Plug-In . SVG Version: 6.00 Build 0)  -->
<svg version="1.1" id="Layer_1" xmlns="http://www.w3.org/2000/svg" xmlns:xlink="http://www.w3.org/1999/xlink" x="0px" y="0px"
	 viewBox="0 0 32 32" enable-background="new 0 0 32 32" xml:space="preserve">
<path fill-rule="evenodd" clip-rule="evenodd" fill="#ffffff" d="M16,32C7.2,32,0,24.8,0,16C0,7.2,7.2,0,16,0c8.8,0,16,7.2,16,16
	C32,24.8,24.8,32,16,32z M16,2C8.3,2,2,8.3,2,16c0,7.7,6.3,14,14,14c7.7,0,14-6.3,14-14C30,8.3,23.7,2,16,2z M15,17v-2V7h2v8h8v2h-8
	H15z"/>
</svg>
